<svg width="49" height="39" viewBox="0 0 49 39" fill="none" xmlns="http://www.w3.org/2000/svg">
<path d="M29 36.9785H20C15.2261 36.9785 10.6477 34.7106 7.27208 30.6739C3.89642 26.6371 2 21.1621 2 15.4533V2H11V15.4533C11 18.3077 11.9482 21.0452 13.636 23.0636C15.3239 25.082 17.6131 26.2159 20 26.2159V2H29V14.1079H29.0675C31.5335 13.74 33.8023 12.3075 35.4472 10.0798C37.0921 7.85212 37.9999 4.98263 38 2.01076H47L46.2305 6.61447C45.7696 9.36993 44.7886 11.9631 43.3622 14.1962C41.9358 16.4293 40.1018 18.2434 38 19.5C40.0438 20.3143 41.8669 21.7706 43.2785 23.7166C44.69 25.6627 45.6381 28.0267 46.0235 30.5613L47 36.9892H38C37.9999 34.0174 37.0921 31.1479 35.4472 28.9202C33.8023 26.6925 31.5335 25.26 29.0675 24.8921V37L29 36.9785Z" stroke="black" stroke-width="3" stroke-linecap="round" stroke-linejoin="round"/>
</svg>
